<mxfile host="app.diagrams.net" modified="2022-05-12T20:59:44.666Z" agent="5.0 (Macintosh; Intel Mac OS X 10_15_7) AppleWebKit/537.36 (KHTML, like Gecko) Chrome/100.0.4896.127 Safari/537.36" etag="BxkflMA5rWewQqbIZ7OJ" version="17.4.6" type="github">
  <diagram id="OmPAkgVwr7OkxJcxL7Gi" name="Page-1">
    <mxGraphModel dx="1056" dy="538" grid="1" gridSize="10" guides="1" tooltips="1" connect="1" arrows="1" fold="1" page="1" pageScale="1" pageWidth="850" pageHeight="1100" math="0" shadow="0">
      <root>
        <mxCell id="0" />
        <mxCell id="1" parent="0" />
        <mxCell id="MVvul43fuzIN3jcqh6V7-1" value="Actor" style="shape=umlActor;verticalLabelPosition=bottom;verticalAlign=top;html=1;outlineConnect=0;" vertex="1" parent="1">
          <mxGeometry x="40" y="40" width="30" height="60" as="geometry" />
        </mxCell>
        <UserObject label="Apple Message Register" lucidchartObjectId="1kHfX-2qE-kO" id="MVvul43fuzIN3jcqh6V7-4">
          <mxCell style="html=1;overflow=block;blockSpacing=1;whiteSpace=wrap;fontSize=13;fontStyle=4;spacing=3.8;strokeColor=#3a414a;strokeOpacity=100;fillOpacity=100;rounded=1;absoluteArcSize=1;arcSize=12;fillColor=#ffffff;strokeWidth=0.8;" vertex="1" parent="1">
            <mxGeometry x="160" y="40" width="105" height="60" as="geometry" />
          </mxCell>
        </UserObject>
        <UserObject label="normal Portal Login Page" lucidchartObjectId="AmHf1W18Q6kN" id="MVvul43fuzIN3jcqh6V7-5">
          <mxCell style="html=1;overflow=block;blockSpacing=1;whiteSpace=wrap;fontSize=13;fontStyle=4;spacing=3.8;strokeColor=#3a414a;strokeOpacity=100;fillOpacity=100;rounded=1;absoluteArcSize=1;arcSize=12;fillColor=#ffffff;strokeWidth=0.8;" vertex="1" parent="1">
            <mxGeometry x="360" y="40" width="105" height="60" as="geometry" />
          </mxCell>
        </UserObject>
        <UserObject label="Third Party App Routing config" lucidchartObjectId="joHf9bomyyUX" id="MVvul43fuzIN3jcqh6V7-6">
          <mxCell style="html=1;overflow=block;blockSpacing=1;whiteSpace=wrap;fontSize=13;fontStyle=4;spacing=3.8;strokeColor=#3a414a;strokeOpacity=100;fillOpacity=100;rounded=1;absoluteArcSize=1;arcSize=12;fillColor=#ffffff;strokeWidth=0.8;" vertex="1" parent="1">
            <mxGeometry x="560" y="40" width="105" height="60" as="geometry" />
          </mxCell>
        </UserObject>
        <UserObject label="Portal home page" lucidchartObjectId="vpHf81Lf~MdL" id="MVvul43fuzIN3jcqh6V7-7">
          <mxCell style="html=1;overflow=block;blockSpacing=1;whiteSpace=wrap;fontSize=13;fontStyle=4;spacing=3.8;strokeColor=#3a414a;strokeOpacity=100;fillOpacity=100;rounded=1;absoluteArcSize=1;arcSize=12;fillColor=#ffffff;strokeWidth=0.8;" vertex="1" parent="1">
            <mxGeometry x="760" y="40" width="105" height="60" as="geometry" />
          </mxCell>
        </UserObject>
        <mxCell id="MVvul43fuzIN3jcqh6V7-8" value="" style="endArrow=none;dashed=1;html=1;dashPattern=1 3;strokeWidth=2;rounded=0;startArrow=none;" edge="1" parent="1" source="MVvul43fuzIN3jcqh6V7-24">
          <mxGeometry width="50" height="50" relative="1" as="geometry">
            <mxPoint x="57" y="560" as="sourcePoint" />
            <mxPoint x="57" y="120" as="targetPoint" />
          </mxGeometry>
        </mxCell>
        <mxCell id="MVvul43fuzIN3jcqh6V7-9" value="" style="endArrow=none;dashed=1;html=1;dashPattern=1 3;strokeWidth=2;rounded=0;startArrow=none;" edge="1" parent="1" source="MVvul43fuzIN3jcqh6V7-26">
          <mxGeometry width="50" height="50" relative="1" as="geometry">
            <mxPoint x="212" y="540" as="sourcePoint" />
            <mxPoint x="212" y="100" as="targetPoint" />
          </mxGeometry>
        </mxCell>
        <mxCell id="MVvul43fuzIN3jcqh6V7-10" value="" style="endArrow=none;dashed=1;html=1;dashPattern=1 3;strokeWidth=2;rounded=0;" edge="1" parent="1">
          <mxGeometry width="50" height="50" relative="1" as="geometry">
            <mxPoint x="412" y="600" as="sourcePoint" />
            <mxPoint x="412" y="100" as="targetPoint" />
          </mxGeometry>
        </mxCell>
        <mxCell id="MVvul43fuzIN3jcqh6V7-11" value="" style="endArrow=none;dashed=1;html=1;dashPattern=1 3;strokeWidth=2;rounded=0;" edge="1" parent="1">
          <mxGeometry width="50" height="50" relative="1" as="geometry">
            <mxPoint x="612" y="600" as="sourcePoint" />
            <mxPoint x="612" y="100" as="targetPoint" />
          </mxGeometry>
        </mxCell>
        <mxCell id="MVvul43fuzIN3jcqh6V7-12" value="" style="endArrow=none;dashed=1;html=1;dashPattern=1 3;strokeWidth=2;rounded=0;" edge="1" parent="1">
          <mxGeometry width="50" height="50" relative="1" as="geometry">
            <mxPoint x="811" y="600" as="sourcePoint" />
            <mxPoint x="812" y="100" as="targetPoint" />
          </mxGeometry>
        </mxCell>
        <mxCell id="MVvul43fuzIN3jcqh6V7-13" value="" style="endArrow=classic;html=1;rounded=0;" edge="1" parent="1">
          <mxGeometry width="50" height="50" relative="1" as="geometry">
            <mxPoint x="60" y="200" as="sourcePoint" />
            <mxPoint x="210" y="200" as="targetPoint" />
          </mxGeometry>
        </mxCell>
        <mxCell id="MVvul43fuzIN3jcqh6V7-14" value="&lt;font style=&quot;font-size: 8px&quot;&gt;Client open apple message register, &lt;br&gt;select nuance as Provider&lt;/font&gt;" style="edgeLabel;html=1;align=center;verticalAlign=middle;resizable=0;points=[];" vertex="1" connectable="0" parent="MVvul43fuzIN3jcqh6V7-13">
          <mxGeometry x="-0.32" relative="1" as="geometry">
            <mxPoint x="19" y="-20" as="offset" />
          </mxGeometry>
        </mxCell>
        <UserObject label="&lt;div style=&quot;display: flex; justify-content: center; text-align: center; align-items: baseline; font-size: 0; line-height: 1.25;margin-top: -2px;&quot;&gt;&lt;span&gt;&lt;span style=&quot;font-size:10.2px;color:#3a414a;&quot;&gt;Redirect with the URL&#xa;&lt;/span&gt;&lt;/span&gt;&lt;/div&gt;&lt;div style=&quot;display: flex; justify-content: center; text-align: center; align-items: baseline; font-size: 0; line-height: 1.25;margin-top: -2px;&quot;&gt;&lt;span&gt;&lt;span style=&quot;font-size:5.3px;color:#172b4d;&quot;&gt;https://&amp;lt;OurSite&amp;gt;?id=&amp;lt;BusinessChatID&amp;gt;&amp;name=&amp;lt;BusinessName&amp;gt;&amp;logo=&amp;lt;LogoURL&amp;gt;&lt;/span&gt;&lt;span style=&quot;font-size:10.2px;color:#3a414a;&quot;&gt;&#xa;&lt;/span&gt;&lt;/span&gt;&lt;/div&gt;&lt;div style=&quot;display: flex; justify-content: center; text-align: center; align-items: baseline; font-size: 0; line-height: 1.25;margin-top: -2px;&quot;&gt;&lt;span&gt;&lt;/span&gt;&lt;/div&gt;" lucidchartObjectId="tuHfbppLoBGR" id="MVvul43fuzIN3jcqh6V7-15">
          <mxCell style="html=1;overflow=block;blockSpacing=1;whiteSpace=wrap;fontSize=13;spacing=3.8;strokeOpacity=0;fillOpacity=0;rounded=1;absoluteArcSize=1;arcSize=12;fillColor=#ffffff;strokeWidth=0.8;" vertex="1" parent="1">
            <mxGeometry x="220" y="210" width="180" height="46" as="geometry" />
          </mxCell>
        </UserObject>
        <mxCell id="MVvul43fuzIN3jcqh6V7-16" value="" style="endArrow=classic;html=1;rounded=0;fontSize=8;" edge="1" parent="1">
          <mxGeometry width="50" height="50" relative="1" as="geometry">
            <mxPoint x="210" y="250" as="sourcePoint" />
            <mxPoint x="410" y="250" as="targetPoint" />
          </mxGeometry>
        </mxCell>
        <mxCell id="MVvul43fuzIN3jcqh6V7-19" value="" style="endArrow=none;html=1;rounded=0;fontSize=8;" edge="1" parent="1">
          <mxGeometry width="50" height="50" relative="1" as="geometry">
            <mxPoint x="410" y="330" as="sourcePoint" />
            <mxPoint x="480" y="330" as="targetPoint" />
          </mxGeometry>
        </mxCell>
        <mxCell id="MVvul43fuzIN3jcqh6V7-21" value="" style="endArrow=none;html=1;rounded=0;fontSize=8;" edge="1" parent="1">
          <mxGeometry width="50" height="50" relative="1" as="geometry">
            <mxPoint x="480" y="380" as="sourcePoint" />
            <mxPoint x="480" y="330" as="targetPoint" />
          </mxGeometry>
        </mxCell>
        <mxCell id="MVvul43fuzIN3jcqh6V7-22" value="" style="endArrow=classic;html=1;rounded=0;fontSize=8;" edge="1" parent="1">
          <mxGeometry width="50" height="50" relative="1" as="geometry">
            <mxPoint x="480" y="380" as="sourcePoint" />
            <mxPoint x="410" y="380" as="targetPoint" />
          </mxGeometry>
        </mxCell>
        <mxCell id="MVvul43fuzIN3jcqh6V7-23" value="Input username and password" style="text;html=1;strokeColor=none;fillColor=none;align=center;verticalAlign=middle;whiteSpace=wrap;rounded=0;fontSize=8;" vertex="1" parent="1">
          <mxGeometry x="420" y="300" width="60" height="30" as="geometry" />
        </mxCell>
        <mxCell id="MVvul43fuzIN3jcqh6V7-24" value="" style="html=1;points=[];perimeter=orthogonalPerimeter;fontSize=8;" vertex="1" parent="1">
          <mxGeometry x="52" y="200" width="10" height="40" as="geometry" />
        </mxCell>
        <mxCell id="MVvul43fuzIN3jcqh6V7-25" value="" style="endArrow=none;dashed=1;html=1;dashPattern=1 3;strokeWidth=2;rounded=0;" edge="1" parent="1" target="MVvul43fuzIN3jcqh6V7-24">
          <mxGeometry width="50" height="50" relative="1" as="geometry">
            <mxPoint x="57" y="560" as="sourcePoint" />
            <mxPoint x="57" y="120" as="targetPoint" />
          </mxGeometry>
        </mxCell>
        <mxCell id="MVvul43fuzIN3jcqh6V7-26" value="" style="html=1;points=[];perimeter=orthogonalPerimeter;fontSize=8;" vertex="1" parent="1">
          <mxGeometry x="207" y="196" width="10" height="80" as="geometry" />
        </mxCell>
        <mxCell id="MVvul43fuzIN3jcqh6V7-27" value="" style="endArrow=none;dashed=1;html=1;dashPattern=1 3;strokeWidth=2;rounded=0;" edge="1" parent="1" target="MVvul43fuzIN3jcqh6V7-26">
          <mxGeometry width="50" height="50" relative="1" as="geometry">
            <mxPoint x="210" y="600" as="sourcePoint" />
            <mxPoint x="212" y="100" as="targetPoint" />
          </mxGeometry>
        </mxCell>
        <mxCell id="MVvul43fuzIN3jcqh6V7-28" value="" style="html=1;points=[];perimeter=orthogonalPerimeter;fontSize=8;" vertex="1" parent="1">
          <mxGeometry x="407.5" y="250" width="10" height="190" as="geometry" />
        </mxCell>
        <mxCell id="MVvul43fuzIN3jcqh6V7-29" value="" style="endArrow=classic;html=1;rounded=0;fontSize=8;" edge="1" parent="1">
          <mxGeometry width="50" height="50" relative="1" as="geometry">
            <mxPoint x="417.5" y="430" as="sourcePoint" />
            <mxPoint x="610" y="430" as="targetPoint" />
          </mxGeometry>
        </mxCell>
        <mxCell id="MVvul43fuzIN3jcqh6V7-30" value="Redirect to routing config" style="text;html=1;strokeColor=none;fillColor=none;align=center;verticalAlign=middle;whiteSpace=wrap;rounded=0;fontSize=8;" vertex="1" parent="1">
          <mxGeometry x="465" y="400" width="105" height="30" as="geometry" />
        </mxCell>
        <mxCell id="MVvul43fuzIN3jcqh6V7-32" value="" style="endArrow=none;html=1;rounded=0;fontSize=8;" edge="1" parent="1">
          <mxGeometry width="50" height="50" relative="1" as="geometry">
            <mxPoint x="615" y="480" as="sourcePoint" />
            <mxPoint x="680" y="480" as="targetPoint" />
          </mxGeometry>
        </mxCell>
        <mxCell id="MVvul43fuzIN3jcqh6V7-33" value="" style="endArrow=none;html=1;rounded=0;fontSize=8;" edge="1" parent="1">
          <mxGeometry width="50" height="50" relative="1" as="geometry">
            <mxPoint x="680" y="530" as="sourcePoint" />
            <mxPoint x="680" y="480" as="targetPoint" />
          </mxGeometry>
        </mxCell>
        <mxCell id="MVvul43fuzIN3jcqh6V7-34" value="" style="endArrow=classic;html=1;rounded=0;fontSize=8;" edge="1" parent="1">
          <mxGeometry width="50" height="50" relative="1" as="geometry">
            <mxPoint x="680" y="530" as="sourcePoint" />
            <mxPoint x="610" y="530" as="targetPoint" />
          </mxGeometry>
        </mxCell>
        <mxCell id="MVvul43fuzIN3jcqh6V7-36" value="Add the connection to third party APP routing Config use the query param" style="text;html=1;strokeColor=none;fillColor=none;align=center;verticalAlign=middle;whiteSpace=wrap;rounded=0;fontSize=8;" vertex="1" parent="1">
          <mxGeometry x="620" y="430" width="60" height="30" as="geometry" />
        </mxCell>
        <mxCell id="MVvul43fuzIN3jcqh6V7-37" value="" style="endArrow=none;dashed=1;html=1;dashPattern=1 3;strokeWidth=2;rounded=0;" edge="1" parent="1" target="MVvul43fuzIN3jcqh6V7-24">
          <mxGeometry width="50" height="50" relative="1" as="geometry">
            <mxPoint x="57" y="600" as="sourcePoint" />
            <mxPoint x="57" y="240.0000000000001" as="targetPoint" />
          </mxGeometry>
        </mxCell>
        <mxCell id="MVvul43fuzIN3jcqh6V7-38" value="" style="endArrow=classic;html=1;rounded=0;fontSize=8;" edge="1" parent="1">
          <mxGeometry width="50" height="50" relative="1" as="geometry">
            <mxPoint x="615" y="600" as="sourcePoint" />
            <mxPoint x="810" y="600" as="targetPoint" />
          </mxGeometry>
        </mxCell>
        <mxCell id="MVvul43fuzIN3jcqh6V7-39" value="Redirect to home page" style="text;html=1;strokeColor=none;fillColor=none;align=center;verticalAlign=middle;whiteSpace=wrap;rounded=0;fontSize=8;" vertex="1" parent="1">
          <mxGeometry x="665" y="560" width="60" height="30" as="geometry" />
        </mxCell>
      </root>
    </mxGraphModel>
  </diagram>
</mxfile>
